<svg xmlns="http://www.w3.org/2000/svg" width="800" height="500" viewBox="0 0 800 500">
  <defs>
    <linearGradient id="bg" x1="0%" y1="0%" x2="100%" y2="100%">
      <stop offset="0%" stop-color="#0f0a1e"/>
      <stop offset="100%" stop-color="#1a1030"/>
    </linearGradient>
    <linearGradient id="accent" x1="0%" y1="0%" x2="100%" y2="0%">
      <stop offset="0%" stop-color="#a855f7"/>
      <stop offset="100%" stop-color="#6d28d9"/>
    </linearGradient>
  </defs>
  <rect width="800" height="500" fill="url(#bg)"/>
  <!-- Sidebar -->
  <rect x="0" y="0" width="180" height="500" fill="#110d20" opacity="0.8"/>
  <rect x="20" y="20" width="140" height="12" rx="3" fill="#a855f7" opacity="0.6"/>
  <rect x="20" y="60" width="120" height="8" rx="2" fill="#ffffff" opacity="0.15"/>
  <rect x="20" y="80" width="100" height="8" rx="2" fill="#ffffff" opacity="0.1"/>
  <rect x="20" y="100" width="130" height="8" rx="2" fill="#ffffff" opacity="0.1"/>
  <rect x="20" y="120" width="90" height="8" rx="2" fill="#ffffff" opacity="0.1"/>
  <rect x="20" y="160" width="110" height="8" rx="2" fill="#a855f7" opacity="0.3"/>
  <rect x="20" y="180" width="100" height="8" rx="2" fill="#ffffff" opacity="0.1"/>
  <rect x="20" y="200" width="120" height="8" rx="2" fill="#ffffff" opacity="0.1"/>
  <!-- Header -->
  <rect x="200" y="20" width="580" height="50" rx="8" fill="#1e1535" opacity="0.6"/>
  <rect x="220" y="38" width="150" height="14" rx="3" fill="#ffffff" opacity="0.2"/>
  <circle cx="740" cy="45" r="15" fill="#a855f7" opacity="0.3"/>
  <!-- Cards row -->
  <rect x="200" y="90" width="180" height="100" rx="10" fill="#1e1535" stroke="#a855f7" stroke-opacity="0.2" stroke-width="1"/>
  <rect x="220" y="110" width="60" height="10" rx="2" fill="#a855f7" opacity="0.5"/>
  <rect x="220" y="130" width="140" height="24" rx="4" fill="#ffffff" opacity="0.15"/>
  <rect x="220" y="164" width="80" height="8" rx="2" fill="#10b981" opacity="0.5"/>
  <rect x="400" y="90" width="180" height="100" rx="10" fill="#1e1535" stroke="#00d4ff" stroke-opacity="0.2" stroke-width="1"/>
  <rect x="420" y="110" width="60" height="10" rx="2" fill="#00d4ff" opacity="0.5"/>
  <rect x="420" y="130" width="140" height="24" rx="4" fill="#ffffff" opacity="0.15"/>
  <rect x="420" y="164" width="80" height="8" rx="2" fill="#f472b6" opacity="0.5"/>
  <rect x="600" y="90" width="180" height="100" rx="10" fill="#1e1535" stroke="#10b981" stroke-opacity="0.2" stroke-width="1"/>
  <rect x="620" y="110" width="60" height="10" rx="2" fill="#10b981" opacity="0.5"/>
  <rect x="620" y="130" width="140" height="24" rx="4" fill="#ffffff" opacity="0.15"/>
  <rect x="620" y="164" width="80" height="8" rx="2" fill="#a855f7" opacity="0.5"/>
  <!-- Table -->
  <rect x="200" y="210" width="580" height="270" rx="10" fill="#1e1535" opacity="0.5"/>
  <rect x="200" y="210" width="580" height="40" rx="10" fill="#1e1535"/>
  <rect x="220" y="225" width="80" height="10" rx="2" fill="#ffffff" opacity="0.3"/>
  <rect x="380" y="225" width="60" height="10" rx="2" fill="#ffffff" opacity="0.2"/>
  <rect x="520" y="225" width="70" height="10" rx="2" fill="#ffffff" opacity="0.2"/>
  <rect x="680" y="225" width="50" height="10" rx="2" fill="#ffffff" opacity="0.2"/>
  <line x1="200" y1="250" x2="780" y2="250" stroke="#ffffff" stroke-opacity="0.1"/>
  <rect x="220" y="265" width="120" height="8" rx="2" fill="#ffffff" opacity="0.15"/>
  <rect x="380" y="265" width="80" height="8" rx="2" fill="#ffffff" opacity="0.1"/>
  <rect x="520" y="265" width="50" height="20" rx="10" fill="#10b981" opacity="0.3"/>
  <rect x="220" y="300" width="100" height="8" rx="2" fill="#ffffff" opacity="0.15"/>
  <rect x="380" y="300" width="90" height="8" rx="2" fill="#ffffff" opacity="0.1"/>
  <rect x="520" y="300" width="50" height="20" rx="10" fill="#f59e0b" opacity="0.3"/>
  <rect x="220" y="335" width="130" height="8" rx="2" fill="#ffffff" opacity="0.15"/>
  <rect x="380" y="335" width="70" height="8" rx="2" fill="#ffffff" opacity="0.1"/>
  <rect x="520" y="335" width="50" height="20" rx="10" fill="#ef4444" opacity="0.3"/>
  <rect x="220" y="370" width="110" height="8" rx="2" fill="#ffffff" opacity="0.15"/>
  <rect x="380" y="370" width="85" height="8" rx="2" fill="#ffffff" opacity="0.1"/>
  <rect x="520" y="370" width="50" height="20" rx="10" fill="#10b981" opacity="0.3"/>
  <text x="490" y="480" font-family="monospace" font-size="11" fill="#a855f7" opacity="0.4" text-anchor="middle">supportHelper v2 — Dashboard</text>
</svg>
