<svg xmlns="http://www.w3.org/2000/svg" width="800" height="500" viewBox="0 0 800 500">
  <rect width="800" height="500" fill="#0f0a1e"/>
  <!-- GitHub-like header -->
  <rect x="0" y="0" width="800" height="50" fill="#161222"/>
  <circle cx="40" cy="25" r="14" fill="#ffffff" opacity="0.15"/>
  <rect x="70" y="18" width="120" height="14" rx="3" fill="#ffffff" opacity="0.2"/>
  <!-- Issue cards -->
  <rect x="40" y="70" width="720" height="80" rx="8" fill="#1e1535" stroke="#10b981" stroke-opacity="0.3" stroke-width="1"/>
  <circle cx="70" cy="95" r="10" fill="#10b981" opacity="0.4"/>
  <rect x="90" y="88" width="250" height="12" rx="3" fill="#ffffff" opacity="0.3"/>
  <rect x="90" y="108" width="400" height="8" rx="2" fill="#ffffff" opacity="0.1"/>
  <rect x="90" y="123" width="60" height="16" rx="8" fill="#a855f7" opacity="0.3"/>
  <rect x="160" y="123" width="45" height="16" rx="8" fill="#00d4ff" opacity="0.3"/>
  <rect x="650" y="88" width="80" height="8" rx="2" fill="#ffffff" opacity="0.1"/>
  <rect x="40" y="165" width="720" height="80" rx="8" fill="#1e1535" stroke="#10b981" stroke-opacity="0.3" stroke-width="1"/>
  <circle cx="70" cy="190" r="10" fill="#10b981" opacity="0.4"/>
  <rect x="90" y="183" width="300" height="12" rx="3" fill="#ffffff" opacity="0.3"/>
  <rect x="90" y="203" width="450" height="8" rx="2" fill="#ffffff" opacity="0.1"/>
  <rect x="90" y="218" width="50" height="16" rx="8" fill="#ef4444" opacity="0.3"/>
  <rect x="150" y="218" width="55" height="16" rx="8" fill="#f59e0b" opacity="0.3"/>
  <rect x="40" y="260" width="720" height="80" rx="8" fill="#1e1535" stroke="#a855f7" stroke-opacity="0.2" stroke-width="1"/>
  <circle cx="70" cy="285" r="10" fill="#a855f7" opacity="0.4"/>
  <rect x="90" y="278" width="280" height="12" rx="3" fill="#ffffff" opacity="0.3"/>
  <rect x="90" y="298" width="380" height="8" rx="2" fill="#ffffff" opacity="0.1"/>
  <rect x="90" y="313" width="70" height="16" rx="8" fill="#10b981" opacity="0.3"/>
  <!-- Auto-gen badge -->
  <rect x="250" y="370" width="300" height="50" rx="10" fill="#a855f7" opacity="0.1" stroke="#a855f7" stroke-opacity="0.3" stroke-width="1"/>
  <rect x="280" y="385" width="20" height="20" rx="3" fill="#a855f7" opacity="0.4"/>
  <rect x="310" y="388" width="200" height="10" rx="2" fill="#ffffff" opacity="0.2"/>
  <rect x="310" y="403" width="150" height="7" rx="2" fill="#a855f7" opacity="0.3"/>
  <text x="400" y="460" font-family="monospace" font-size="11" fill="#10b981" opacity="0.4" text-anchor="middle">supportHelper v2 — GitHub Integration</text>
</svg>
