<svg xmlns="http://www.w3.org/2000/svg" width="800" height="500" viewBox="0 0 800 500">
  <defs>
    <linearGradient id="bg2" x1="0%" y1="0%" x2="100%" y2="100%">
      <stop offset="0%" stop-color="#0f0a1e"/>
      <stop offset="100%" stop-color="#1a1030"/>
    </linearGradient>
  </defs>
  <rect width="800" height="500" fill="url(#bg2)"/>
  <!-- Ticket header -->
  <rect x="40" y="30" width="720" height="60" rx="10" fill="#1e1535"/>
  <rect x="60" y="45" width="200" height="14" rx="3" fill="#ffffff" opacity="0.3"/>
  <rect x="60" y="65" width="120" height="8" rx="2" fill="#a855f7" opacity="0.4"/>
  <rect x="620" y="45" width="80" height="28" rx="14" fill="#ef4444" opacity="0.3"/>
  <rect x="640" y="55" width="40" height="8" rx="2" fill="#ffffff" opacity="0.4"/>
  <!-- Content -->
  <rect x="40" y="110" width="440" height="360" rx="10" fill="#1e1535" opacity="0.5"/>
  <rect x="60" y="130" width="180" height="12" rx="3" fill="#ffffff" opacity="0.25"/>
  <rect x="60" y="155" width="400" height="8" rx="2" fill="#ffffff" opacity="0.1"/>
  <rect x="60" y="170" width="380" height="8" rx="2" fill="#ffffff" opacity="0.1"/>
  <rect x="60" y="185" width="350" height="8" rx="2" fill="#ffffff" opacity="0.1"/>
  <rect x="60" y="200" width="300" height="8" rx="2" fill="#ffffff" opacity="0.1"/>
  <!-- AI Analysis box -->
  <rect x="60" y="230" width="400" height="120" rx="8" fill="#a855f7" opacity="0.08" stroke="#a855f7" stroke-opacity="0.2" stroke-width="1"/>
  <rect x="80" y="250" width="100" height="10" rx="2" fill="#a855f7" opacity="0.5"/>
  <rect x="80" y="275" width="360" height="6" rx="2" fill="#ffffff" opacity="0.1"/>
  <rect x="80" y="290" width="340" height="6" rx="2" fill="#ffffff" opacity="0.1"/>
  <rect x="80" y="305" width="300" height="6" rx="2" fill="#ffffff" opacity="0.1"/>
  <rect x="80" y="320" width="280" height="6" rx="2" fill="#ffffff" opacity="0.1"/>
  <!-- AI panel -->
  <rect x="500" y="110" width="260" height="360" rx="10" fill="#1e1535" opacity="0.7" stroke="#00d4ff" stroke-opacity="0.15" stroke-width="1"/>
  <rect x="520" y="130" width="100" height="12" rx="3" fill="#00d4ff" opacity="0.5"/>
  <circle cx="540" cy="190" r="30" fill="#00d4ff" opacity="0.1" stroke="#00d4ff" stroke-opacity="0.3"/>
  <text x="540" y="195" font-family="monospace" font-size="14" fill="#00d4ff" opacity="0.6" text-anchor="middle">AI</text>
  <rect x="520" y="240" width="220" height="6" rx="2" fill="#ffffff" opacity="0.1"/>
  <rect x="520" y="255" width="200" height="6" rx="2" fill="#ffffff" opacity="0.1"/>
  <rect x="520" y="270" width="180" height="6" rx="2" fill="#ffffff" opacity="0.1"/>
  <rect x="520" y="300" width="100" height="30" rx="6" fill="#a855f7" opacity="0.3"/>
  <rect x="540" y="311" width="60" height="8" rx="2" fill="#ffffff" opacity="0.4"/>
  <text x="400" y="490" font-family="monospace" font-size="11" fill="#00d4ff" opacity="0.4" text-anchor="middle">supportHelper v2 — Analyse IA</text>
</svg>
